<?xml version="1.0" standalone="no"?>
<!DOCTYPE svg PUBLIC "-//W3C//DTD SVG 20010904//EN"
 "http://www.w3.org/TR/2001/REC-SVG-20010904/DTD/svg10.dtd">
<svg version="1.0" xmlns="http://www.w3.org/2000/svg"
 width="131.000000pt" height="131.000000pt" viewBox="0 0 131.000000 131.000000"
 preserveAspectRatio="xMidYMid meet">

<g transform="translate(0.000000,131.000000) scale(0.100000,-0.100000)"
fill="#000000" stroke="none">
<path d="M628 793 c6 -2 18 -2 25 0 6 3 1 5 -13 5 -14 0 -19 -2 -12 -5z"/>
<path d="M546 749 c-18 -22 -26 -41 -25 -67 l1 -37 9 44 c5 24 18 55 30 68 13
12 20 23 17 23 -4 0 -18 -14 -32 -31z"/>
<path d="M693 760 c-12 -10 -19 -21 -15 -25 4 -4 -19 -5 -50 -1 -64 7 -75 1
-28 -15 38 -14 28 -33 -12 -25 -25 5 -28 4 -19 -8 9 -11 9 -15 -1 -19 -7 -3
-3 -6 10 -6 25 -1 58 14 80 36 18 18 38 17 23 -1 -10 -12 -8 -17 8 -26 23 -12
29 2 11 30 -7 11 -2 22 16 41 30 32 11 47 -23 19z"/>
<path d="M736 731 c-4 -5 -3 -16 0 -24 7 -20 -20 -71 -48 -89 -39 -25 -75 -29
-120 -14 l-43 15 33 -30 c63 -56 167 -33 191 44 10 31 14 68 12 95 -1 14 -17
16 -25 3z"/>
</g>
</svg>
